<?xml version="1.0" encoding="UTF-8"?>
<svg width="801px" height="290px" viewBox="0 0 801 290" version="1.1" xmlns="http://www.w3.org/2000/svg" xmlns:xlink="http://www.w3.org/1999/xlink">
    <title>xkit-logo-mono-black</title>
    <g id="Page-1" stroke="none" stroke-width="1" fill="none" fill-rule="evenodd">
        <g id="xkit-logo-black" transform="translate(332.000000, 0.000000)" fill="#1C1C1C" fill-rule="nonzero">
            <polygon id="Path" points="200.97 289.61 113.94 168.61 192.27 88.45 140.65 88.45 48.86 182.24 47.22 182.24 47.22 0 0.79 0 0.79 289.61 47.22 289.61 47.22 236.9 86.01 197.19 150.17 289.61"></polygon>
            <path d="M232.19,88.25 L278.81,88.25 L278.81,289.61 L232.33,289.61 L232.19,88.25 Z M226.02,28.8 C226.02,14 237.19,3.72 252.41,3.72 C267.63,3.72 278.8,14 278.8,28.8 C278.8,43.8 267.68,53.65 252.41,53.65 C237.14,53.65 226.02,43.84 226.02,28.8 Z" id="Shape"></path>
            <polygon id="Path" points="468.19 88.25 411.01 88.25 411.01 24.2 364.35 24.2 364.35 88.25 319.06 88.25 319.06 125.25 364.35 125.25 364.54 289.61 410.97 289.61 411.01 125.3 468.19 125.3"></polygon>
        </g>
        <g id="xkit-mark-white" transform="translate(0.000000, 87.000000)" fill="#1C1C1C" fill-rule="nonzero">
            <polygon id="Path" points="169.695665 68 155.707497 82.4682605 173.963412 101.408529 95.2460728 182.643259 48.511732 182.643259 107.958938 121.46174 93.2678465 107.003597 0 203 103.299563 203 202 101.408529"></polygon>
            <polygon id="Path" points="205.235932 20.2681235 252.080732 20.2681235 192.332273 81.7470913 206.440943 96.2660352 300 0 196.710479 0 98 101.562127 130.645755 135 144.824717 120.400507 126.488467 101.562127"></polygon>
            <polygon id="Path" points="207.576795 107.758933 207.576795 107.769052 206.83444 107 192.388612 121.227469 251.977653 182.64035 205.299571 182.64035 169.144873 145.280594 155 159.922947 196.812647 203 300 203"></polygon>
            <polygon id="Path" points="103.154564 0 0 0 92.555325 95.0964233 93.4377593 96 107.747234 81.29178 48.2932227 20.2099979 95.082296 20.2099979 131.081604 57.3068396 145 43.0002092"></polygon>
        </g>
    </g>
</svg>